<?xml version="1.0" encoding="UTF-8"?>
<svg id="Layer_1" data-name="Layer 1" xmlns="http://www.w3.org/2000/svg" viewBox="0 0 141.38 31.34">
  <defs>
    <style>
      .cls-1 {
        fill: #FFFFFF;
        stroke-width: 0px;
      }
    </style>
  </defs>
  <path class="cls-1" d="M13.17,30.18h-4.76V1.29h3.65v-.78H0v.78h3.65v28.89H0v.78h21.06l2.8-9.39h-.72c-2.09,5.55-4.96,8.61-9.97,8.61h0Z"/>
  <path class="cls-1" d="M50.2,30.18h-4.76v-14.61h2.67c4.5,0,4.89,1.5,5.09,5.35h.78v-11.54h-.78c-.2,3.91-.59,5.41-5.09,5.41h-2.67V1.29h3.32c5.02,0,8.15,1.57,10.23,7.17h.78l-2.8-7.96h-19.88v.78h3.65v28.89h-3.65v.78h21.06l2.74-9.39h-.78c-2.09,5.56-4.89,8.62-9.91,8.62h0Z"/>
  <path class="cls-1" d="M89.89,17.07h6.71v7.5c0,1.5-.59,6.07-7.95,6.07-7.95,0-9.78-9.91-9.78-14.94s1.83-14.87,9.78-14.87c4.24,0,7.56,2.61,9.45,7.63h.78l-2.8-7.96h-3.72c-1.17-.26-2.41-.46-3.72-.46-9.06,0-14.8,7.37-14.8,15.65s5.74,15.65,14.8,15.65c5.28,0,7.37-2.48,9.91-2.48,1.43,0,1.56,1.3,1.76,2.09h.72v-13.89h3.65v-.78h-14.8v.79h0Z"/>
  <path class="cls-1" d="M138.32,30.18L128.28.05h-.05v-.05s-5.07,0-5.07,0l1.85,5.49-8.01,24.69h-3.06v.78h7.56v-.78h-3.65l2.22-6.85h10.95l2.28,6.85h-3.65v.78h11.73v-.78h-3.06ZM120.32,22.55l5.08-15.78,5.34,15.78h-10.42Z"/>
</svg>